<svg xmlns="http://www.w3.org/2000/svg" width="141.712" height="75.117" viewBox="0 0 141.712 75.117">
  <g id="Group_10774" data-name="Group 10774" transform="translate(-83.707 -37.723)">
    <path id="Title_TAG:H6_" data-name="Title [TAG:H6]" d="M6.272,0,3.52-8.96H3.456L3.5-8q.032.64.064,1.376T3.6-5.312V0H1.44V-11.424h3.3l2.7,8.736h.048l2.864-8.736h3.3V0H11.392V-5.408q0-.544.024-1.248t.048-1.336q.024-.632.04-.952H11.44L8.5,0Zm18-4.384a4.639,4.639,0,0,1-1.144,3.36A4.125,4.125,0,0,1,20.016.16a4.394,4.394,0,0,1-2.168-.528,3.731,3.731,0,0,1-1.5-1.544,5.178,5.178,0,0,1-.544-2.472,4.6,4.6,0,0,1,1.136-3.344A4.151,4.151,0,0,1,20.064-8.9a4.382,4.382,0,0,1,2.176.528,3.757,3.757,0,0,1,1.488,1.536A5.093,5.093,0,0,1,24.272-4.384Zm-6.032,0a3.676,3.676,0,0,0,.424,1.96,1.517,1.517,0,0,0,1.384.664,1.5,1.5,0,0,0,1.368-.664,3.676,3.676,0,0,0,.424-1.96,3.589,3.589,0,0,0-.424-1.944,1.53,1.53,0,0,0-1.384-.648,1.514,1.514,0,0,0-1.368.648A3.589,3.589,0,0,0,18.24-4.384ZM29.792.16A4.061,4.061,0,0,1,26.776-.912,4.686,4.686,0,0,1,25.712-4.32a5.472,5.472,0,0,1,.544-2.608,3.423,3.423,0,0,1,1.512-1.488A4.962,4.962,0,0,1,30-8.9a6.132,6.132,0,0,1,1.56.176,6.487,6.487,0,0,1,1.16.416l-.7,1.84q-.56-.224-1.048-.368A3.407,3.407,0,0,0,30-6.976q-1.856,0-1.856,2.64A3.132,3.132,0,0,0,28.632-2.4,1.637,1.637,0,0,0,30-1.776a4.043,4.043,0,0,0,1.328-.2,5.2,5.2,0,0,0,1.12-.552V-.5a3.826,3.826,0,0,1-1.144.5A6.292,6.292,0,0,1,29.792.16Zm7.056-12.32v5.44q0,.5-.04.984t-.088.984h.032q.24-.336.5-.672t.544-.656L40.24-8.736h2.688L39.456-4.944,43.136,0H40.384L37.872-3.536l-1.024.816V0H34.464V-12.16ZM52.4-8.736V0H50.576l-.32-1.12h-.128a2.4,2.4,0,0,1-1.144.976,3.966,3.966,0,0,1-1.544.3A3.254,3.254,0,0,1,45.184-.6a3.127,3.127,0,0,1-.848-2.44v-5.7H46.72v5.1a2.444,2.444,0,0,0,.336,1.416,1.225,1.225,0,0,0,1.072.472,1.535,1.535,0,0,0,1.488-.744,4.6,4.6,0,0,0,.4-2.136V-8.736Zm7.36-.16a2.9,2.9,0,0,1,2.384,1.144,5.316,5.316,0,0,1,.912,3.368,5.249,5.249,0,0,1-.944,3.392A2.985,2.985,0,0,1,59.7.16a2.855,2.855,0,0,1-1.5-.344A3.572,3.572,0,0,1,57.28-.96h-.128A6.847,6.847,0,0,1,57.28.32V3.84H54.9V-8.736h1.936L57.168-7.6h.112a3.218,3.218,0,0,1,.944-.912A2.778,2.778,0,0,1,59.76-8.9Zm-.768,1.9a1.451,1.451,0,0,0-1.312.584,3.306,3.306,0,0,0-.4,1.752V-4.4a4.08,4.08,0,0,0,.376,1.944,1.424,1.424,0,0,0,1.368.68,1.3,1.3,0,0,0,1.208-.68,3.979,3.979,0,0,0,.392-1.96Q60.624-6.992,58.992-6.992ZM74.224-9.568A2.446,2.446,0,0,0,72.1-8.528,4.854,4.854,0,0,0,71.36-5.68a4.989,4.989,0,0,0,.68,2.824,2.451,2.451,0,0,0,2.184,1,6.266,6.266,0,0,0,1.392-.16,13.763,13.763,0,0,0,1.52-.448V-.432a8.141,8.141,0,0,1-1.488.448A8.617,8.617,0,0,1,74,.16a5.309,5.309,0,0,1-2.912-.728,4.314,4.314,0,0,1-1.68-2.048,8.043,8.043,0,0,1-.544-3.08,7.109,7.109,0,0,1,.624-3.056,4.826,4.826,0,0,1,1.816-2.08,5.367,5.367,0,0,1,2.92-.752,6.942,6.942,0,0,1,1.7.216,9.076,9.076,0,0,1,1.64.584l-.784,1.968A12.582,12.582,0,0,0,75.5-9.344,3.878,3.878,0,0,0,74.224-9.568ZM87.312-4.384a4.639,4.639,0,0,1-1.144,3.36A4.125,4.125,0,0,1,83.056.16a4.394,4.394,0,0,1-2.168-.528,3.731,3.731,0,0,1-1.5-1.544,5.178,5.178,0,0,1-.544-2.472,4.6,4.6,0,0,1,1.136-3.344A4.151,4.151,0,0,1,83.1-8.9a4.382,4.382,0,0,1,2.176.528,3.757,3.757,0,0,1,1.488,1.536A5.093,5.093,0,0,1,87.312-4.384Zm-6.032,0a3.676,3.676,0,0,0,.424,1.96,1.517,1.517,0,0,0,1.384.664,1.5,1.5,0,0,0,1.368-.664,3.676,3.676,0,0,0,.424-1.96,3.589,3.589,0,0,0-.424-1.944,1.53,1.53,0,0,0-1.384-.648,1.514,1.514,0,0,0-1.368.648A3.589,3.589,0,0,0,81.28-4.384ZM99.536-8.9a3.049,3.049,0,0,1,2.248.76,3.344,3.344,0,0,1,.76,2.44V0H100.16V-5.1q0-1.888-1.312-1.888A1.438,1.438,0,0,0,97.5-6.32a3.825,3.825,0,0,0-.4,1.936V0H94.72V-5.1q0-1.888-1.312-1.888a1.394,1.394,0,0,0-1.368.744,4.85,4.85,0,0,0-.376,2.136V0H89.28V-8.736H91.1l.32,1.12h.128a2.342,2.342,0,0,1,1.1-.976A3.581,3.581,0,0,1,94.1-8.9a3.8,3.8,0,0,1,1.624.312,2.264,2.264,0,0,1,1.032.968h.208a2.329,2.329,0,0,1,1.112-.976A3.694,3.694,0,0,1,99.536-8.9Zm10.32,0a2.9,2.9,0,0,1,2.384,1.144,5.316,5.316,0,0,1,.912,3.368,5.249,5.249,0,0,1-.944,3.392A2.985,2.985,0,0,1,109.792.16a2.855,2.855,0,0,1-1.5-.344,3.572,3.572,0,0,1-.912-.776h-.128a6.847,6.847,0,0,1,.128,1.28V3.84h-2.384V-8.736h1.936l.336,1.136h.112a3.218,3.218,0,0,1,.944-.912A2.778,2.778,0,0,1,109.856-8.9Zm-.768,1.9a1.451,1.451,0,0,0-1.312.584,3.306,3.306,0,0,0-.4,1.752V-4.4a4.08,4.08,0,0,0,.376,1.944,1.424,1.424,0,0,0,1.368.68,1.3,1.3,0,0,0,1.208-.68,3.979,3.979,0,0,0,.392-1.96Q110.72-6.992,109.088-6.992Zm9.616-1.92a4.184,4.184,0,0,1,2.7.76,2.822,2.822,0,0,1,.936,2.328V0h-1.664l-.464-1.184h-.064A3.713,3.713,0,0,1,118.96-.16a3.8,3.8,0,0,1-1.712.32,2.833,2.833,0,0,1-1.936-.672,2.643,2.643,0,0,1-.768-2.1,2.293,2.293,0,0,1,.976-2.048,5.723,5.723,0,0,1,2.928-.736l1.52-.048v-.384a1.283,1.283,0,0,0-.36-1.008,1.453,1.453,0,0,0-1-.32,4.285,4.285,0,0,0-1.248.184,10.243,10.243,0,0,0-1.216.456l-.784-1.616a7.271,7.271,0,0,1,1.552-.568A7.361,7.361,0,0,1,118.7-8.912Zm1.264,4.864-.928.032a2.623,2.623,0,0,0-1.6.416,1.263,1.263,0,0,0-.448,1.008.894.894,0,0,0,.32.776,1.384,1.384,0,0,0,.832.232,1.914,1.914,0,0,0,1.3-.456,1.61,1.61,0,0,0,.528-1.288ZM129.744-8.9a3.253,3.253,0,0,1,2.256.76,3.127,3.127,0,0,1,.848,2.44V0h-2.384V-5.1a2.444,2.444,0,0,0-.336-1.416,1.225,1.225,0,0,0-1.072-.472,1.535,1.535,0,0,0-1.488.744,4.6,4.6,0,0,0-.4,2.136V0h-2.384V-8.736h1.824l.32,1.12h.128a2.4,2.4,0,0,1,1.144-.976A3.966,3.966,0,0,1,129.744-8.9Zm4.3.16h2.608L138.3-3.824a4.677,4.677,0,0,1,.192.736q.064.368.1.784h.048q.048-.416.128-.784a6.338,6.338,0,0,1,.208-.736l1.616-4.912h2.56l-3.7,9.856A4.285,4.285,0,0,1,138,3.16a3.652,3.652,0,0,1-2.192.68,5.232,5.232,0,0,1-.7-.04q-.288-.04-.512-.088V1.824q.16.032.416.064a4.255,4.255,0,0,0,.528.032,1.553,1.553,0,0,0,1.184-.456,3.021,3.021,0,0,0,.656-1.1l.144-.432Z" transform="translate(82.267 109)" fill="#4d4d4d"/>
    <path id="Title_TAG:H6_2" data-name="Title [TAG:H6]" d="M49.4-38.4a1.277,1.277,0,0,1-.1.582q-.1.194-.259.427t-.349.6a4.326,4.326,0,0,0-.349,1.061q-.155.725-.3,1.268T47.8-33.436q-.1.492-.168,1a9.381,9.381,0,0,0-.065,1.177q0,1.165-.052,2.3t-.155,2.368q-.1,1.229-.246,2.562t-.323,2.885q-.259,2.2-.518,4.658a48.443,48.443,0,0,0-.259,5.072v1.63q0,.932.039,1.993t.1,2.161q.065,1.1.194,2.135a.78.78,0,0,0,.22.168,1.678,1.678,0,0,1,.272.168,7.347,7.347,0,0,1,1.346,1.035A1.667,1.667,0,0,1,48.6-.932,2.39,2.39,0,0,1,48.264.22a4.541,4.541,0,0,1-.893,1.126A4.961,4.961,0,0,1,46.1,2.2a3.386,3.386,0,0,1-1.462.336A3.469,3.469,0,0,1,42.157,1.6a6.341,6.341,0,0,1-1.54-2.394,13.9,13.9,0,0,1-.776-3.261,29.29,29.29,0,0,1-.22-3.558v-.906q0-.725.142-2.2t.362-3.364q.22-1.889.492-4.011t.569-4.154q.3-2.031.569-3.791t.479-2.9q-.311.388-.867,1.126l-1.242,1.643-1.449,1.915q-.763,1.009-1.475,1.98t-1.346,1.824q-.634.854-1.074,1.449-.983,1.346-1.889,2.666T31-13.612a2.429,2.429,0,0,0-.246.336q-.168.259-.375.582t-.414.634a3.149,3.149,0,0,1-.362.466A7.761,7.761,0,0,1,25.62-8.54,10.151,10.151,0,0,1,23.382-9.5,6.188,6.188,0,0,1,22-10.623a6.429,6.429,0,0,1-.919-1.333q-.375-.725-.867-1.527-.518-.88-.932-1.6t-.725-1.294q-.673-1.216-1.268-2.562t-1.113-2.743q-.362-1.165-.634-1.993t-.5-1.553q-.233-.725-.466-1.475t-.518-1.76q-.052.181-.207.88t-.388,1.734l-.518,2.3q-.285,1.268-.569,2.588t-.556,2.575q-.272,1.255-.492,2.264t-.375,1.669q-.155.66-.181.789a16.231,16.231,0,0,0-.518,3.934q0,.388-.026,1.2t-.039,1.734q-.013.919-.039,1.773T10.119-3.7a2.633,2.633,0,0,1-.233.958,4.413,4.413,0,0,1-.647,1.087,4.48,4.48,0,0,1-.958.893,1.974,1.974,0,0,1-1.139.375A12.091,12.091,0,0,1,5.667-.466,3.206,3.206,0,0,1,4.594-.776,2.335,2.335,0,0,1,3.8-1.449a4.958,4.958,0,0,1-.621-1.139,2.3,2.3,0,0,1-.155-.5q-.052-.272-.091-.686T2.885-4.8q-.013-.608-.013-1.54a6.735,6.735,0,0,1,.194-1.152q.194-.867.492-2.083t.66-2.627q.362-1.41.738-2.769t.7-2.562q.323-1.2.531-1.954.362-1.294.75-2.691T7.7-25q.375-1.423.75-2.834t.686-2.678A15.661,15.661,0,0,1,9.446-32.4q.155-.7.414-1.488a7.907,7.907,0,0,1,.634-1.449,3.939,3.939,0,0,1,.906-1.1,1.9,1.9,0,0,1,1.255-.44,9.864,9.864,0,0,1,3.351.466,4.493,4.493,0,0,1,2.019,1.436,7.246,7.246,0,0,1,1.2,2.5q.44,1.527.906,3.675a6.624,6.624,0,0,0,.311,1.048q.181.453.388,1a45.673,45.673,0,0,0,2.135,5.344,47.073,47.073,0,0,0,2.911,5.24,6.047,6.047,0,0,0,1.229-1.385q.556-.841,1.229-2.057.6-1.061,1.2-2.006a13.685,13.685,0,0,1,1.385-1.8q.285-.311.906-1.074t1.436-1.786l1.721-2.161Q35.894-29.58,36.7-30.6l1.423-1.812q.621-.789.88-1.126.285-.336.44-.531t.388-.453q.285-.414.932-1.268T42.118-37.6q.712-.958,1.372-1.824t.97-1.307a1.533,1.533,0,0,1,1.372-.543A2.536,2.536,0,0,1,47-40.953a5.8,5.8,0,0,1,1.152.789,5.153,5.153,0,0,1,.88.983,1.7,1.7,0,0,1,.349.906ZM97.952-16.77a4.016,4.016,0,0,1-.7,2.044,14.793,14.793,0,0,1-1.889,2.394,36.078,36.078,0,0,1-2.769,2.6q-1.579,1.346-3.338,2.691Q86.875-5.228,84.2-3.571A51.349,51.349,0,0,1,78.75-.634,36.335,36.335,0,0,1,73.237,1.41a19.5,19.5,0,0,1-5.228.763,14.256,14.256,0,0,1-5.15-.841,9.378,9.378,0,0,1-3.6-2.394A9.776,9.776,0,0,1,57.154-4.8a16.165,16.165,0,0,1-.686-4.852,20.962,20.962,0,0,1,.518-4.555,29.272,29.272,0,0,1,1.436-4.606,33.523,33.523,0,0,1,2.161-4.4,33.011,33.011,0,0,1,2.666-3.908,25.27,25.27,0,0,1,1.967-2.161q1.139-1.126,2.407-2.213t2.562-2.031q1.294-.945,2.458-1.643.828-.492,2.1-1.1t2.653-1.139a27.922,27.922,0,0,1,2.73-.893,9.157,9.157,0,0,1,2.329-.362,13.282,13.282,0,0,1,2.795.233,4.819,4.819,0,0,1,1.837.828,5.234,5.234,0,0,1,.88.88,12.413,12.413,0,0,1,.932,1.294,11.533,11.533,0,0,1,.75,1.385,2.919,2.919,0,0,1,.311,1.152,2.626,2.626,0,0,1-.194.841,11.221,11.221,0,0,1-.5,1.152q-.311.621-.7,1.281t-.763,1.255q-.375.6-.712,1.061t-.518.7a3.677,3.677,0,0,1-2.924,1.372,3.068,3.068,0,0,1-2.29-.828,2.832,2.832,0,0,1-.815-2.07,3.136,3.136,0,0,1,.44-1.229,7.977,7.977,0,0,1,1.449-1.85,9.431,9.431,0,0,0,.854-.97,8.089,8.089,0,0,0,.569-.841,3.869,3.869,0,0,0-1.32-.233,6.6,6.6,0,0,0-2.006.4,23.842,23.842,0,0,0-2.51,1.009,26.757,26.757,0,0,0-2.549,1.359,18.161,18.161,0,0,0-2.1,1.449,37.024,37.024,0,0,0-4.5,4.374,24.032,24.032,0,0,0-3.52,5.305q-.543,1.139-1.035,2.433T63.455-14.3a24.481,24.481,0,0,0-.569,2.666,16.468,16.468,0,0,0-.207,2.523,9.8,9.8,0,0,0,.285,2.433,5.1,5.1,0,0,0,.945,1.941,4.432,4.432,0,0,0,1.721,1.294,6.5,6.5,0,0,0,2.614.466,15.9,15.9,0,0,0,3.856-.5,28.468,28.468,0,0,0,4.089-1.372q2.07-.867,4.154-1.993t4.011-2.368Q86.28-10.455,88-11.723T91.12-14.13q.543-.44,1.2-1.035t1.346-1.242q.686-.647,1.346-1.32t1.2-1.242a10.6,10.6,0,0,1,.945.543,1.878,1.878,0,0,1,.518.479,1.362,1.362,0,0,1,.22.531A3.64,3.64,0,0,1,97.952-16.77Z" transform="translate(105.267 79)" fill="#4d4d4d"/>
  </g>
</svg>
