<svg xmlns="http://www.w3.org/2000/svg" width="67" height="67" viewBox="0 0 67 67">
  <g id="Circle_Button_" data-name="Circle Button " transform="translate(0 0)">
    <path id="Area_SIZE:MEDIUM_STATE:DEFAULT_STYLE:STYLE3_" data-name="Area [SIZE:MEDIUM][STATE:DEFAULT][STYLE:STYLE3]" d="M33.5,0A33.5,33.5,0,1,1,0,33.5,33.5,33.5,0,0,1,33.5,0Z" transform="translate(0 0)" fill="#fff"/>
    <g id="Icon_" data-name="Icon " transform="translate(20 19)">
      <rect id="Area_ICON:feather_twitter_SIZE:MEDIUM_STATE:DEFAULT_STYLE:STYLE3_" data-name="Area [ICON:feather/twitter][SIZE:MEDIUM][STATE:DEFAULT][STYLE:STYLE3]" width="28" height="29" transform="translate(0 0)" fill="#4d4d4d" opacity="0"/>
      <g id="Icon" transform="translate(0.8 3.922)">
        <path id="Path" d="M26.6,2.5A12.783,12.783,0,0,1,22.924,4.3,5.247,5.247,0,0,0,13.718,7.81V8.98A12.487,12.487,0,0,1,3.176,3.674S-1.509,14.216,9.033,18.9a13.631,13.631,0,0,1-8.2,2.342c10.542,5.857,23.427,0,23.427-13.47a5.255,5.255,0,0,0-.094-.973A9.033,9.033,0,0,0,26.6,2.5Z" transform="translate(-0.833 -2.491)" fill="#4d4d4d"/>
      </g>
    </g>
  </g>
</svg>
