<svg xmlns="http://www.w3.org/2000/svg" width="67" height="67" viewBox="0 0 67 67">
  <g id="Circle_Button_" data-name="Circle Button " transform="translate(0 0)">
    <rect id="Area_SIZE:MEDIUM_STATE:DEFAULT_STYLE:STYLE3_" data-name="Area [SIZE:MEDIUM][STATE:DEFAULT][STYLE:STYLE3]" width="67" height="67" rx="33.5" transform="translate(0 0)" fill="#fff"/>
    <g id="Icon_" data-name="Icon " transform="translate(20 19)">
      <g id="Area_ICON:feather_youtube_SIZE:MEDIUM_STATE:DEFAULT_STYLE:STYLE3_" data-name="Area [ICON:feather/youtube][SIZE:MEDIUM][STATE:DEFAULT][STYLE:STYLE3]" transform="translate(0 0)" stroke="#fd49c6" stroke-width="1" opacity="0">
        <rect width="28" height="29" stroke="none"/>
        <rect x="0.5" y="0.5" width="27" height="28" fill="none"/>
      </g>
      <g id="Icon" transform="translate(0.712 5.105)">
        <path id="Path" d="M26.063,6.168a3.256,3.256,0,0,0-2.271-2.343c-2.016-.492-10.074-.492-10.074-.492s-8.058,0-10.074.54A3.254,3.254,0,0,0,1.373,6.214a33.937,33.937,0,0,0-.54,6.2,33.919,33.919,0,0,0,.54,6.242A3.255,3.255,0,0,0,3.644,20.9c2.016.54,10.074.54,10.074.54s8.058,0,10.074-.54a3.254,3.254,0,0,0,2.271-2.342,33.917,33.917,0,0,0,.54-6.149A33.934,33.934,0,0,0,26.063,6.168Z" transform="translate(-0.833 -3.333)" fill="#4d4d4d"/>
        <path id="Path-2" data-name="Path" d="M8.125,14.727,14.86,10.9,8.125,7.067Z" transform="translate(2.125 -1.819)" fill="#fff"/>
      </g>
    </g>
  </g>
</svg>
